<?xml version="1.0" encoding="utf-8"?>
<svg viewBox="0 0 24 24" fill="none" xmlns="http://www.w3.org/2000/svg">
  <path d="M 17.92 12.382 C 17.872 12.504 17.801 12.617 17.71 12.712 L 12.71 17.712 C 12.617 17.805 12.506 17.879 12.384 17.929 C 12.262 17.98 12.132 18.006 12 18.006 C 11.734 18.006 11.478 17.9 11.29 17.712 C 11.197 17.618 11.123 17.508 11.072 17.386 C 11.022 17.264 10.996 17.134 10.996 17.002 C 10.996 16.735 11.102 16.48 11.29 16.292 L 14.59 13.002 L 7 13.002 C 6.735 13.002 6.48 12.896 6.293 12.709 C 6.105 12.521 6 12.267 6 12.002 C 6 11.737 6.105 11.482 6.293 11.295 C 6.48 11.107 6.735 11.002 7 11.002 L 14.59 11.002 L 11.29 7.712 C 11.196 7.619 11.122 7.508 11.071 7.386 C 11.02 7.264 10.994 7.134 10.994 7.002 C 10.994 6.87 11.02 6.739 11.071 6.617 C 11.122 6.495 11.196 6.385 11.29 6.292 C 11.383 6.198 11.494 6.124 11.615 6.073 C 11.737 6.022 11.868 5.996 12 5.996 C 12.132 5.996 12.263 6.022 12.385 6.073 C 12.506 6.124 12.617 6.198 12.71 6.292 L 17.71 11.292 C 17.801 11.387 17.872 11.499 17.92 11.622 C 18.02 11.865 18.02 12.138 17.92 12.382 Z" fill="white" style="transform-origin: 11.9975px 12.001px;" transform="matrix(-1, 0, 0, -1, 0, 0.000001907349)"/>
</svg>